<svg width="26" height="26" viewBox="0 0 26 26" fill="none" xmlns="http://www.w3.org/2000/svg">
<path d="M4.76328 5.81953C4.52461 5.87539 4.67695 5.86523 4.47891 5.89062C3.63086 6.07344 4.26055 6.23594 4.76328 5.81953ZM19.6777 6.15977C19.7387 6.11914 19.952 5.91094 19.2867 5.70781C19.3273 5.91602 19.1496 5.8957 19.1496 6.0125C19.6422 6.45937 19.8453 7.23633 20.475 7.39883C20.5969 6.84023 19.9164 6.56602 19.6777 6.15977ZM4.31133 5.65703C4.3875 6.10898 4.72773 5.17969 4.73281 4.84961C4.60078 4.92578 4.46875 5.00195 4.33164 5.06289C4.65156 5.22539 4.37227 5.39805 4.02695 5.65703C3.32617 6.53047 4.68203 4.97656 4.31133 5.65703ZM13 0C5.81953 0 0 5.81953 0 13C0 20.1754 5.81953 26 13 26C20.1805 26 26 20.1754 26 13C26 5.81953 20.1805 0 13 0ZM13.3453 4.35703L13.4062 4.37734C13.1625 4.69219 14.6758 5.61133 13.5891 5.6875C12.5734 5.97695 14.0156 5.42344 13.2285 5.51992C13.6449 4.94102 12.8984 4.93086 13.3453 4.35703ZM7.18047 5.18984C6.81484 4.88516 5.66719 5.60625 6.06836 5.43359C7.06367 5.04258 6.13438 5.47422 6.36797 5.94141C6.15469 6.3832 6.29688 5.50469 5.76875 6.02773C5.38789 6.11406 4.45352 6.97734 4.57031 6.71328C4.53984 7.12461 3.4582 7.61211 3.31094 8.29766C2.95547 9.24727 3.22461 8.26211 3.15859 7.89141C2.65078 7.24648 1.72656 8.9832 2.00078 9.66875C2.46289 8.85625 2.42734 9.58242 2.09219 9.94297C2.43242 10.5676 1.78242 11.3801 2.42734 11.8422C2.71172 11.9082 3.28047 10.8875 3.03164 11.9488C3.2043 11.0297 3.50898 12.1672 4.00156 11.9133C4.03203 12.3957 4.33164 12.1723 4.39766 12.7562C5.22031 12.6953 5.97188 14.0867 4.9918 14.3508C5.13906 14.3102 5.42852 14.5691 5.76367 14.3711C6.33242 14.823 7.83047 14.8789 7.87109 15.9961C6.84023 16.4887 7.61719 17.8395 6.72344 18.3219C5.69766 18.1695 6.37305 19.5863 5.94141 19.4238C6.11406 20.4445 4.90547 19.2918 5.37266 19.8555C6.23086 20.3836 4.99687 20.277 5.38281 20.6629C4.95117 20.5715 5.65195 21.4652 5.76875 21.7953C6.38828 22.8008 5.23555 21.5719 4.89531 21.2367C4.57031 20.5867 3.80352 19.3426 3.59023 18.3219C3.46836 16.8391 2.3207 15.8438 2.05664 14.3965C1.79258 13.5891 2.78281 12.2941 2.24961 11.8422C1.7875 11.4816 1.97539 10.2477 1.70117 9.59766C2.38672 6.62695 4.56523 4.12344 7.18047 2.64062C6.91133 2.83867 8.71914 2.12773 8.51094 2.30039C8.45508 2.42734 9.56719 1.81797 10.2375 1.72656C10.1664 1.73672 8.4957 2.33594 8.95781 2.25469C8.2418 2.60508 8.88672 2.40703 9.24219 2.2293C8.53125 2.75234 7.98281 2.60508 7.17539 3.06719C6.36289 3.28047 6.53047 4.12344 5.95156 4.54492C6.2918 4.60586 7.14492 3.66641 7.64258 3.33633C8.78516 2.78281 7.06367 4.3418 8.15039 3.67148C7.78477 4.01172 7.86094 4.55508 7.6375 4.70742C7.52578 4.67695 8.0793 4.97148 7.18047 5.18984ZM8.95781 2.85391C8.84101 3.01133 8.67852 3.35156 8.58203 3.14336C8.45 3.20938 8.39922 3.49375 8.15039 3.26523C8.29766 3.15859 8.45 2.90469 8.16055 3.06211C8.29258 2.91992 9.4707 2.51875 9.40469 2.36641C9.61289 2.23438 9.59258 2.16836 9.35391 2.24961C9.23203 2.20898 9.64336 1.86367 10.1918 1.81797C10.268 1.81797 10.2984 1.86875 10.1613 1.85352C9.33359 2.10742 9.68906 2.03633 10.2477 1.85352C10.0344 1.97539 9.88711 2.01094 9.85156 2.0668C10.4102 1.86367 9.82109 2.21406 9.94805 2.18867C9.79062 2.26992 9.97344 2.29531 9.66875 2.41211C9.72461 2.36641 9.17109 2.74219 9.50117 2.63047C9.18125 2.93516 9.03906 2.94023 8.95781 2.85391ZM9.44531 3.58008C9.45547 3.09258 10.1562 2.78281 10.0699 2.75742C10.9332 2.35117 9.77031 2.77266 10.4508 2.40703C10.7047 2.38164 11.243 1.56914 11.9895 1.51836C12.8121 1.26953 12.4312 1.53359 13.0406 1.3L12.9187 1.40156C12.8121 1.4168 12.9441 1.60469 12.5582 1.88906C12.5176 2.33086 11.8219 2.12773 12.1672 2.6C11.9438 2.28008 11.6086 2.58984 12.0301 2.62031C11.5781 2.96563 10.527 3.02656 10.0242 3.60039C9.69922 4.06758 9.39961 3.92031 9.44531 3.58008ZM13.0559 5.20508C12.7105 6.03789 12.3754 5.0832 12.9848 4.93086C13.1371 5.01211 13.198 5.0375 13.0559 5.20508ZM11.7559 3.53945C11.6543 3.16367 11.7355 3.36172 12.3398 3.18398C12.7563 3.48359 11.9691 3.68164 11.7559 3.53945ZM21.2113 18.4438C20.734 17.6211 21.7902 16.8594 22.1457 16.1687C22.1 16.9762 21.9984 17.7734 21.2113 18.4438ZM23.009 9.04414C22.491 9.08477 22.0238 9.20664 21.5566 8.91211C20.4801 7.73398 21.7547 10.2426 22.1102 9.2168C23.3898 9.7043 22.0898 11.8066 21.2824 11.5883C20.8305 10.6133 20.2719 9.5418 19.2867 9.06445C20.0434 9.90234 20.4191 10.9332 21.2316 11.6898C21.2875 12.7461 22.359 11.3039 22.293 12.1215C22.3945 13.5281 20.7035 14.3711 20.998 15.7828C21.6277 17.0676 19.7844 17.3012 19.9926 18.4539C19.2512 19.2816 18.459 20.3988 17.1285 20.2211C17.1285 19.5203 16.773 18.9262 16.6918 18.2051C15.9707 17.291 17.4535 16.3109 16.5344 15.3562C15.473 15.1176 16.7527 13.6551 15.6609 13.7922C15.0059 13.1371 14.0461 13.7719 13.1066 13.777C11.9285 13.8887 10.7148 12.3297 11.2379 11.2277C10.8215 10.0801 12.5582 9.74492 12.6039 8.73438C13.4367 8.03867 14.6199 8.125 15.7473 7.9625C15.666 8.76992 16.5191 8.775 17.1641 9.04414C17.5246 8.1707 18.6469 9.18633 19.4137 8.63281C19.6777 7.34297 18.6672 8.11992 18.0883 7.70859C17.3875 6.68281 19.5863 7.18047 19.3578 6.64219C18.5047 6.63711 18.9871 5.59102 18.3828 6.175C18.9262 6.27148 18.2863 6.69805 18.3016 6.21055C17.4789 5.97188 18.2711 7.14492 17.8547 7.25664C17.2199 6.99258 17.5195 7.55625 17.5855 7.64258C17.3113 8.23672 16.9762 6.76914 16.1992 6.80977C15.4273 6.10391 15.8945 7.12969 16.5648 7.29727C16.4227 7.33789 16.6461 7.92188 16.4684 7.67305C15.9148 6.91133 14.8637 6.40352 14.2391 7.33789C14.173 8.21133 12.3957 8.46016 12.6801 7.43945C12.2637 6.3832 13.9699 7.40898 13.8125 6.56602C12.7156 5.83984 14.1121 6.07344 14.4828 5.39297C15.3258 5.41836 14.5184 4.70234 14.9145 4.49414C14.8738 5.27109 15.5594 5.12383 16.1027 4.97656C15.9707 4.52969 16.4277 4.54492 16.1484 4.17422C17.4078 3.67148 15.1887 4.40781 15.6355 3.30586C15.0922 2.93008 15.407 4.13359 15.6355 4.26055C15.6508 4.63125 15.3359 5.08828 14.9043 4.31133C14.2746 4.72266 14.3406 3.89492 14.3 3.98125C14.2289 3.66133 14.7773 3.64609 14.7824 3.0875C14.7367 2.73203 14.7469 2.54414 15.0008 2.52383C15.0211 2.57461 16.0418 2.58984 16.4023 3.01133C15.4172 2.81328 16.2551 3.17383 16.6969 3.37695C16.2246 3.00625 16.8848 3.37695 16.4988 2.95547C16.6512 2.98594 16.0773 2.37656 16.6664 2.90977C16.3465 2.52891 17.291 2.64062 16.7324 2.35625C17.55 2.58477 17.0676 2.37656 16.5852 2.16836C15.2547 1.37617 18.9363 3.23984 17.4332 2.41211C18.393 2.62031 15.3816 1.6707 16.7527 2.08711C16.2297 1.85859 16.7375 1.98555 17.2098 2.13281C16.3617 1.86875 15.0922 1.37617 15.143 1.35586C15.4375 1.37617 15.727 1.44219 16.0063 1.52344C16.8746 1.78242 15.7574 1.4625 15.9961 1.46758C18.982 2.23438 21.5973 4.23516 23.1867 6.85039C23.5574 7.24141 24.568 9.82617 24.0398 8.67852C24.2785 9.59258 24.3141 10.5777 24.441 11.5121C24.177 11.2176 23.8824 10.1309 23.6285 9.52656C23.5219 9.76016 23.4 9.19648 23.009 9.04414Z" fill="#878787"/>
</svg>
